<svg width="126" height="29" viewBox="0 0 126 29" fill="none" xmlns="http://www.w3.org/2000/svg">
<path d="M20.9953 28.0751L12.746 27.9225C10.075 27.8694 7.39746 27.9756 4.77896 27.4251C0.795412 26.6026 0.513217 22.5699 0.217897 19.1872C-0.188989 14.4315 -0.031485 9.58958 0.736348 4.8737C1.16948 2.22723 2.87578 0.648633 5.51398 0.476181C14.4195 -0.147297 23.3841 -0.0743372 32.27 0.217504C33.2085 0.244035 34.1535 0.389955 35.0788 0.555774C39.6464 1.36497 39.758 5.93494 40.0533 9.78193C40.3487 13.6687 40.224 17.5754 39.6596 21.4357C39.2067 24.6327 38.3405 27.3123 34.6851 27.571C30.1043 27.9092 25.6286 28.1812 21.0347 28.095C21.0347 28.0751 21.0084 28.0751 20.9953 28.0751V28.0751ZM16.1455 19.9831C19.5975 17.98 22.9838 16.0101 26.4161 14.0203C22.9576 12.0172 19.5778 10.0472 16.1455 8.05742V19.9831Z" fill="#282626"/>
<path d="M106.221 24.4404C106.063 25.0904 105.926 25.6012 105.788 26.1451H102.559V0.973511H106.326V10.2595C106.523 10.0074 106.621 9.90128 106.707 9.78853C107.35 8.8931 108.183 8.30941 109.259 8.08389C110.972 7.74562 112.436 8.50839 112.954 10.1732C113.289 11.2079 113.505 12.3156 113.532 13.3968C113.584 16.1759 113.545 18.9484 113.446 21.7276C113.407 22.5766 113.151 23.4455 112.83 24.2414C111.773 26.868 108.321 27.266 106.608 24.9909C106.503 24.8517 106.405 24.6991 106.221 24.4404V24.4404ZM106.405 17.5158V22.1189C106.405 22.8684 106.798 23.3261 107.54 23.4986C108.268 23.671 108.859 23.3858 109.154 22.7026C109.279 22.4174 109.404 22.1189 109.41 21.8205C109.483 19.0081 109.548 16.1958 109.568 13.3769C109.568 12.8529 109.443 12.309 109.286 11.7983C108.99 10.8763 108.177 10.6044 107.376 11.1416C106.772 11.5529 106.405 12.1365 106.405 12.9126V17.5158ZM96.1669 8.44206H100.111V26.1583H97.0332C96.9216 25.4884 96.8101 24.7986 96.6788 23.9894C96.4688 24.3011 96.3441 24.5001 96.2129 24.6991C95.1891 26.1915 93.7387 26.7022 92.0259 26.4303C90.5624 26.1915 89.683 25.0506 89.4861 23.1802C89.4271 22.623 89.4008 22.0592 89.4008 21.5021C89.3877 17.3566 89.4008 13.1978 89.4008 9.05228V8.4288H93.3909V9.15178C93.3909 13.158 93.3778 17.1576 93.404 21.1638C93.404 21.7342 93.4631 22.3246 93.5616 22.895C93.6731 23.4787 94.0931 23.6909 94.6575 23.6511C95.5697 23.5782 96.1997 22.895 96.1997 21.9796V9.22474C96.1669 8.96606 96.1669 8.72728 96.1669 8.44206V8.44206ZM69.0106 8.4288H72.9745V9.17831C72.9745 13.1646 72.9613 17.1443 72.9876 21.1174C72.9876 21.6878 73.0401 22.2781 73.1582 22.8353C73.3092 23.4919 73.6898 23.7042 74.3395 23.618C75.2386 23.4919 75.7833 22.8618 75.7899 21.9398V9.25127V8.45533H79.734V26.1583H76.6693C76.5577 25.5017 76.4461 24.8251 76.3017 23.9695C76.1049 24.268 75.9933 24.4404 75.8817 24.6195C74.858 26.1384 73.4207 26.6956 71.6685 26.4236C70.2641 26.2114 69.4044 25.1634 69.1419 23.4455C69.0697 22.9082 69.0172 22.3776 69.0172 21.8404C69.0041 17.5357 69.0041 13.2111 69.0041 8.90636L69.0106 8.4288ZM66.9762 17.8872C66.9631 18.4842 66.9237 19.0811 66.8909 19.6781C66.7399 21.4689 66.6677 24.0093 65.2371 25.316C64.3249 26.1384 63.1698 26.4369 61.9754 26.4767C61.4439 26.49 60.9057 26.49 60.3742 26.417C57.8607 26.0323 56.6925 24.9114 56.2725 22.1189C55.7934 18.8954 55.754 15.6188 56.325 12.3952C56.9156 9.05892 58.9501 7.87827 62.1133 8.09716C65.0665 8.30941 66.3856 10.2661 66.7334 13.0519C66.9237 14.6504 67.0156 16.2688 66.9762 17.8872V17.8872ZM62.9598 17.277C62.9598 16.1428 62.9861 15.0019 62.9467 13.8677C62.9205 13.2111 62.8352 12.5478 62.6973 11.8978C62.5398 11.1483 62.0673 10.7901 61.4767 10.8033C60.8992 10.8166 60.4923 11.1748 60.2823 11.8712C60.2101 12.1299 60.1313 12.3952 60.1313 12.6539C60.1313 14.4315 60.1182 16.2157 60.1051 17.9933C60.092 19.6515 59.882 21.3893 60.4004 22.9746C60.5579 23.4588 60.9648 23.7241 61.4964 23.7241C62.0148 23.7241 62.3561 23.4654 62.5464 23.0011C62.6973 22.6429 62.8286 22.2516 62.8286 21.8669C62.8745 20.3413 62.9598 18.8092 62.9598 17.277ZM50.4842 13.9407C50.832 12.2228 51.1602 10.5447 51.5211 8.85993C51.9739 6.71753 52.4793 4.57513 52.9255 2.4261C53.0371 1.90211 53.2471 1.77608 53.7393 1.78935C54.7959 1.82914 55.8722 1.80261 57.0009 1.80261C56.6334 3.16897 56.2725 4.46901 55.9181 5.74914C54.7959 9.76863 53.6737 13.8014 52.5646 17.8341C52.4793 18.1459 52.4399 18.4842 52.4399 18.8158C52.4268 21.0179 52.4399 23.2134 52.4399 25.4154V26.1318H48.5876C48.5745 25.9328 48.5482 25.7338 48.5482 25.5348C48.5482 24.2879 48.4498 23.0343 48.5614 21.8006C48.8435 18.8357 47.9116 16.1096 47.1569 13.3504C46.1594 9.7023 45.1488 6.04098 44.1512 2.39293C44.0987 2.22048 44.0791 2.03476 44.0266 1.82251H47.9576C48.7845 5.84863 49.6179 9.87475 50.4842 13.9407ZM125.856 18.5637H119.215C119.287 19.9102 119.313 21.1903 119.451 22.4572C119.55 23.3394 120.029 23.7174 120.783 23.7241C121.571 23.7373 122.03 23.3394 122.214 22.4638C122.273 22.1786 122.313 21.8934 122.339 21.6016C122.365 21.3429 122.378 21.0643 122.398 20.6929C123.52 20.7526 124.616 20.8189 125.699 20.8653C126.329 22.7557 125.194 25.1833 123.284 25.9328C121.781 26.5298 120.239 26.5298 118.703 26.0721C117.568 25.7338 116.721 25.0042 116.341 23.8833C115.986 22.8353 115.651 21.7409 115.579 20.6464C115.382 17.9469 115.31 15.2208 115.717 12.5146C115.789 12.0636 115.914 11.6325 116.052 11.1947C116.603 9.39056 117.804 8.28288 119.661 8.09716C120.672 7.99767 121.715 8.03746 122.713 8.20992C124.327 8.49513 125.187 9.66914 125.561 11.2079C125.732 11.9309 125.856 12.6738 125.883 13.41C125.889 15.1014 125.856 16.7795 125.856 18.5637ZM122.083 16.2356C122.083 14.9024 122.096 13.6488 122.07 12.3886C122.07 12.0901 121.958 11.7784 121.847 11.4932C121.624 10.936 121.158 10.7834 120.6 10.7834C120.042 10.7834 119.688 11.0687 119.55 11.5794C119.13 13.1116 119.268 14.6769 119.281 16.2489C120.285 16.2356 121.197 16.2356 122.083 16.2356V16.2356Z" fill="#282626"/>
<path d="M82.7787 5.05292H78.874V1.8559H90.5292V5.03302H86.6507V26.132H82.7853L82.7787 5.05292Z" fill="#282626"/>
</svg>
