<svg width="109" height="37" viewBox="0 0 109 37" fill="none" xmlns="http://www.w3.org/2000/svg">
<path d="M103.609 6.6538H98.8564V0H88.4204L83.6211 6.6538H75.0929L72.2412 9.50543V6.6538H65.5874V0H44.6755V6.6538H15.2562L10.456 0H0V22.813L13.3076 36.1206H26.6152V32.3184L30.4174 36.1206H56.082V32.3184L59.8842 36.1206H72.2412V32.3184L76.0434 36.1206H99.807L108.362 27.5657V11.4065L103.609 6.6538ZM16.1592 16.1592H9.50543V18.0603H16.1592V25.6646H5.70326L1.90109 21.8625V1.90109H9.50543V8.55488H16.1592V16.1592ZM44.6755 25.6646H21.8625L18.0603 21.8625V8.55488H25.6646V18.0603H27.5657V8.55488H35.1701V18.0603H37.0712V8.55488H44.6755V25.6646ZM54.1809 25.6646H46.5766V8.55488H54.1809V25.6646ZM54.1809 6.6538H46.5766V1.90109H54.1809V6.6538ZM70.3402 16.1592H63.6864V18.0603H70.3402V25.6646H59.8842L56.082 21.8625V1.90109H63.6864V8.55488H70.3402V16.1592ZM87.4499 16.1592H79.8456V18.0603H87.4499V25.6646H76.0434L72.2412 21.8625V12.3571L76.0434 8.55488H87.4499V16.1592ZM106.461 25.6646H98.8564V16.1592H96.9553V25.6646H89.351V1.90109H96.9553V8.55488H102.659L106.461 12.3571V25.6646Z" fill="#282626"/>
</svg>
