<?xml version="1.0" encoding="UTF-8"?>
<svg version="1.1" xmlns="http://www.w3.org/2000/svg" width="128" height="128">
<path d="M0 0 C1.30904297 0.54333984 1.30904297 0.54333984 2.64453125 1.09765625 C15.58613897 6.96213287 25.55771084 17.0307398 32.3125 29.375 C32.63814941 29.96289307 32.96379883 30.55078613 33.29931641 31.15649414 C38.07313631 40.33051986 39.54065403 49.62066398 39.4375 59.875 C39.43065186 60.9263916 39.42380371 61.9777832 39.41674805 63.06103516 C39.25207948 71.03790106 38.27122293 77.65315505 35 85 C34.63777344 85.87269531 34.27554688 86.74539062 33.90234375 87.64453125 C26.21036706 104.61902897 11.95251411 115.30081733 -4.859375 122.16796875 C-21.15000275 127.18228047 -40.5122321 125.09818754 -55.5 117.5 C-71.91873216 108.59772371 -82.60885123 94.20575147 -88.11328125 76.3984375 C-91.21559644 63.30712927 -90.47677869 47.30030624 -85 35 C-84.63777344 34.12730469 -84.27554688 33.25460938 -83.90234375 32.35546875 C-76.9799626 17.07929883 -64.35962165 6.03063924 -48.99609375 -0.22265625 C-33.66616238 -5.9177972 -15.16398211 -6.75184605 0 0 Z M-71.44921875 19.79296875 C-82.29716799 33.65324109 -87.67190549 49.30410148 -86 67 C-83.39880014 83.82355804 -75.69861174 98.23782651 -62.1875 108.8125 C-48.63769505 118.43999299 -32.65902947 123.26652801 -16.00097656 120.69091797 C1.59291494 117.41870489 15.62550298 108.70994026 26.02734375 94.0703125 C35.13997874 79.88708259 38.39085584 63.41638772 34.8684082 46.87866211 C30.74005456 29.59105357 20.89596172 16.57056065 6 7 C-19.53611671 -7.50422493 -52.02591423 -2.3564136 -71.44921875 19.79296875 Z " fill="#ffffff" transform="translate(89,4)"/>
<path d="M0 0 C0.495 1.485 0.495 1.485 1 3 C3.35016445 4.66193993 3.35016445 4.66193993 6.1875 6.25 C12.91895042 10.41459384 18.03827365 14.93884717 20.52734375 22.64453125 C22.70398301 33.49175005 20.65614435 43.58533567 14.75 52.875 C11.86104934 56.56396776 8.29318864 59.14212889 4 61 C0.5 61.3125 0.5 61.3125 -2 61 C-2 61.66 -2 62.32 -2 63 C-2.56396484 62.99476318 -3.12792969 62.98952637 -3.70898438 62.98413086 C-6.30597789 62.96312733 -8.90295344 62.95026638 -11.5 62.9375 C-12.8303125 62.92493164 -12.8303125 62.92493164 -14.1875 62.91210938 C-19.55823086 62.89236404 -24.68633663 63.21164107 -30 64 C-30.97159933 56.31395526 -31.10920422 48.74136601 -31 41 C-27.7 41 -24.4 41 -21 41 C-21 36.38 -21 31.76 -21 27 C-24.96 27.33 -28.92 27.66 -33 28 C-33.02703562 25.41659616 -33.04685611 22.83347692 -33.0625 20.25 C-33.07087891 19.52039063 -33.07925781 18.79078125 -33.08789062 18.0390625 C-33.11857629 11.28821715 -33.11857629 11.28821715 -32 8 C-29.59454362 6.79727181 -28.05003047 6.89928528 -25.375 6.9375 C-24.14910156 6.95103516 -24.14910156 6.95103516 -22.8984375 6.96484375 C-21.95871094 6.98224609 -21.95871094 6.98224609 -21 7 C-21 5.35 -21 3.7 -21 2 C-17.34222388 0.90908432 -13.73598005 0.68913432 -9.9375 0.4375 C-8.70902344 0.35371094 -7.48054688 0.26992188 -6.21484375 0.18359375 C-4.14569678 0.06542861 -2.07251832 0 0 0 Z M-7 3 C-7.66 5.64 -8.32 8.28 -9 11 C-9.66 9.02 -10.32 7.04 -11 5 C-11.33 5 -11.66 5 -12 5 C-12.33 6.65 -12.66 8.3 -13 10 C-13.66 8.35 -14.32 6.7 -15 5 C-15.99 5.495 -15.99 5.495 -17 6 C-17.0506353 13.06580552 -17.0857062 20.1315644 -17.10986328 27.19750977 C-17.11993201 29.60214995 -17.13358785 32.00677786 -17.15087891 34.41137695 C-17.17508874 37.86412584 -17.18647432 41.3167131 -17.1953125 44.76953125 C-17.20563507 45.84773636 -17.21595764 46.92594147 -17.22659302 48.03681946 C-17.22674408 49.03763046 -17.22689514 50.03844147 -17.22705078 51.06958008 C-17.231492 51.95116287 -17.23593323 52.83274567 -17.24050903 53.74104309 C-17.14640061 56.28251649 -17.14640061 56.28251649 -15 59 C-13.02 58.505 -13.02 58.505 -11 58 C-10.7215625 56.0509375 -10.7215625 56.0509375 -10.4375 54.0625 C-10.33308594 53.33160156 -10.22867188 52.60070312 -10.12109375 51.84765625 C-10.08113281 51.23792969 -10.04117188 50.62820312 -10 50 C-10.33 49.67 -10.66 49.34 -11 49 C-10.34 49 -9.68 49 -9 49 C-8.67 52.3 -8.34 55.6 -8 59 C-7.34 59 -6.68 59 -6 59 C-5.34556621 40.66018932 -4.83480778 22.35469091 -5 4 C-5.66 3.67 -6.32 3.34 -7 3 Z M0 8 C-1.41717403 12.92526055 -1.71719918 17.92503623 -1 23 C1.32321702 25.24191401 1.32321702 25.24191401 4 27 C6.12062475 31.2224829 6.20059724 34.28020991 4.9375 38.8125 C3 42 3 42 0.3984375 43.28125 C-0.39304688 43.8484375 -1.18453125 44.415625 -2 45 C-2.60557942 48.19375377 -2.60557942 48.19375377 -2.3125 51.6875 C-2.24482422 53.45673828 -2.24482422 53.45673828 -2.17578125 55.26171875 C-2.11777344 56.16535156 -2.05976562 57.06898437 -2 58 C4.38573068 56.60990897 8.48735073 54.48036465 12.5546875 49.296875 C16.57621257 42.90591084 17.68805003 36.31662524 16.6953125 28.87109375 C14.6576264 20.45705283 10.95643246 13.76131492 3.734375 8.890625 C2.02842507 7.84773177 2.02842507 7.84773177 0 8 Z M-29 11 C-29.25015873 14.41642759 -29.25015873 14.41642759 -29 18 C-27.515 18.99 -27.515 18.99 -26 20 C-26.99 20.66 -27.98 21.32 -29 22 C-29 22.66 -29 23.32 -29 24 C-26.36 23.67 -23.72 23.34 -21 23 C-20.74984127 19.58357241 -20.74984127 19.58357241 -21 16 C-21.99 15.34 -22.98 14.68 -24 14 C-23.34 12.68 -22.68 11.36 -22 10 C-24.33859436 10 -26.70030423 10.60856242 -29 11 Z M-1 28 C-1.98248524 32.0527516 -2.08159574 35.83861737 -2 40 C0.11922127 38.91256712 0.11922127 38.91256712 2 37 C2.58333333 34 2.58333333 34 2 31 C0.62493901 29.12109566 0.62493901 29.12109566 -1 28 Z M-27 44 C-27.02703381 45.93742341 -27.04641125 47.87495479 -27.0625 49.8125 C-27.07410156 50.89144531 -27.08570313 51.97039062 -27.09765625 53.08203125 C-27.13624766 56.06512169 -27.13624766 56.06512169 -26 59 C-24.35 59 -22.7 59 -21 59 C-21 57.68 -21 56.36 -21 55 C-22.32 54.34 -23.64 53.68 -25 53 C-23.68 51.68 -22.36 50.36 -21 49 C-22.32 48.67 -23.64 48.34 -25 48 C-25 47.34 -25 46.68 -25 46 C-24.01 45.67 -23.02 45.34 -22 45 C-22 44.67 -22 44.34 -22 44 C-23.65 44 -25.3 44 -27 44 Z " fill="#ffffff" transform="translate(70,32)"/>
<path d="M0 0 C3.16844618 0.25690104 4.75500182 0.80264035 7.25 2.8125 C8.98120654 4.97650817 9.61317453 6.29222168 10 9 C7.08012238 7.69108934 5.203133 6.29493021 3 4 C1.68036291 2.98199424 0.34990354 1.97751635 -1 1 C-0.67 0.67 -0.34 0.34 0 0 Z " fill="#000000" transform="translate(72,46)"/>
<path d="M0 0 C2.3125 -0.25 2.3125 -0.25 5 0 C6.97610386 2.04424538 8 3.1176825 8 6 C4.63408134 4.55746343 2.48952921 2.66735273 0 0 Z " fill="#000000" transform="translate(71,52)"/>
<path d="M0 0 C0.99 0 1.98 0 3 0 C3 0.99 3 1.98 3 3 C2.01 2.67 1.02 2.34 0 2 C0 1.34 0 0.68 0 0 Z " fill="#000000" transform="translate(57,47)"/>
</svg>
